# xmcd
#
# Track frame offsets:
#	150
#	14247
#	25337
#	42390
#	56452
#	69692
#	85135
#	101552
#	119735
#	136432
#	153825
#	169112
#	181930
#	195012
#
# Disc length: 2839 seconds
#
# Revision: 3
# Processed by: cddbd v1.5.2PL0 Copyright (c) Steve Scherf et al.
# Submitted via: audiograbber 1.83.01
#
DISCID=bc0b150e
DTITLE=Various Artist - Hot Hits Country Volume 31
DYEAR=1900
DGENRE=Country
TTITLE0=Wynonna - Rock Bottom
TTITLE1=Tracy Lawrence - If The Good Die Young
TTITLE2=Tanya Tucker - We Don't have To Do This
TTITLE3=Billy Ray Cyrus - Words By Heart
TTITLE4=Dwight Yoakam - Try Not To Look So Pretty
TTITLE5=Ricky Van Sheldon - Where Was I
TTITLE6=Radney Foster - Closing Time
TTITLE7=Faith Hill - Piece Of My Heart
TTITLE8=Doug Supernaw - Red And Rio Grande
TTITLE9=Mavericks - What A Crying Shame
TTITLE10=Sammy Kershaw - I Can't Reach Her Anymore
TTITLE11=George Straight - Lovebug
TTITLE12=Aaron Tippin - Honky Tonk Superman
TTITLE13=Reba McEntire - If I Had Only Known
EXTD=
EXTT0=Judd - Wynonna
EXTT1=Lawrence - Tracy
EXTT2=Tucker - Tanya
EXTT3=Cyrus - Billy Ray
EXTT4=Yoakam - Dwight
EXTT5=VanShelton - Ricky
EXTT6=Foster - Radney
EXTT7=Hill - Faith
EXTT8=Supernaw - Doug
EXTT9=Mavericks
EXTT10=Kershaw - Sammy
EXTT11=Strait - George
EXTT12=Tippin - Aaron
EXTT13=McEntire - Reba
PLAYORDER=
